<svg xmlns="http://www.w3.org/2000/svg" width="169" height="48" viewBox="0 0 169 48" fill="none">
<path d="M69.712 21.768V33H66.976V26.264L64.464 33H62.256L59.728 26.248V33H56.992V21.768H60.224L63.376 29.544L66.496 21.768H69.712ZM78.6715 31.016H74.4795L73.8075 33H70.9435L75.0075 21.768H78.1755L82.2395 33H79.3435L78.6715 31.016ZM77.9675 28.904L76.5755 24.792L75.1995 28.904H77.9675ZM91.5564 21.768V23.96H88.5804V33H85.8444V23.96H82.8684V21.768H91.5564ZM99.9215 31.016H95.7295L95.0575 33H92.1935L96.2575 21.768H99.4255L103.49 33H100.594L99.9215 31.016ZM99.2175 28.904L97.8255 24.792L96.4495 28.904H99.2175ZM115.27 21.768L111.286 33H107.862L103.878 21.768H106.79L109.574 30.248L112.374 21.768H115.27ZM119.15 23.96V26.232H122.814V28.344H119.15V30.808H123.294V33H116.414V21.768H123.294V23.96H119.15ZM130.798 33L128.462 28.76H127.806V33H125.07V21.768H129.662C130.547 21.768 131.299 21.9227 131.918 22.232C132.547 22.5413 133.017 22.968 133.326 23.512C133.635 24.0453 133.79 24.6427 133.79 25.304C133.79 26.0507 133.577 26.7173 133.15 27.304C132.734 27.8907 132.115 28.3067 131.294 28.552L133.886 33H130.798ZM127.806 26.824H129.502C130.003 26.824 130.377 26.7013 130.622 26.456C130.878 26.2107 131.006 25.864 131.006 25.416C131.006 24.9893 130.878 24.6533 130.622 24.408C130.377 24.1627 130.003 24.04 129.502 24.04H127.806V26.824ZM139.572 33.112C138.75 33.112 138.014 32.9787 137.364 32.712C136.713 32.4453 136.19 32.0507 135.796 31.528C135.412 31.0053 135.209 30.376 135.188 29.64H138.1C138.142 30.056 138.286 30.376 138.532 30.6C138.777 30.8133 139.097 30.92 139.492 30.92C139.897 30.92 140.217 30.8293 140.452 30.648C140.686 30.456 140.804 30.1947 140.804 29.864C140.804 29.5867 140.708 29.3573 140.516 29.176C140.334 28.9947 140.105 28.8453 139.828 28.728C139.561 28.6107 139.177 28.4773 138.676 28.328C137.95 28.104 137.358 27.88 136.9 27.656C136.441 27.432 136.046 27.1013 135.716 26.664C135.385 26.2267 135.22 25.656 135.22 24.952C135.22 23.9067 135.598 23.0907 136.356 22.504C137.113 21.9067 138.1 21.608 139.316 21.608C140.553 21.608 141.55 21.9067 142.308 22.504C143.065 23.0907 143.47 23.912 143.524 24.968H140.564C140.542 24.6053 140.409 24.3227 140.164 24.12C139.918 23.9067 139.604 23.8 139.22 23.8C138.889 23.8 138.622 23.8907 138.42 24.072C138.217 24.2427 138.116 24.4933 138.116 24.824C138.116 25.1867 138.286 25.4693 138.628 25.672C138.969 25.8747 139.502 26.0933 140.228 26.328C140.953 26.5733 141.54 26.808 141.988 27.032C142.446 27.256 142.841 27.5813 143.172 28.008C143.502 28.4347 143.668 28.984 143.668 29.656C143.668 30.296 143.502 30.8773 143.172 31.4C142.852 31.9227 142.382 32.3387 141.764 32.648C141.145 32.9573 140.414 33.112 139.572 33.112ZM148.087 23.96V26.232H151.751V28.344H148.087V30.808H152.231V33H145.351V21.768H152.231V23.96H148.087Z" fill="#121212"/>
<path d="M1.98441 29.2899C1.98441 27.0299 2.42954 24.7919 3.29444 22.704C4.15935 20.6159 5.42701 18.7187 7.02513 17.1206C8.62324 15.5225 10.5204 14.2548 12.6084 13.3899C14.6965 12.5251 16.9344 12.0799 19.1945 12.0799V29.2899H1.98441Z" fill="#121212"/>
<path d="M1.98441 29.2899C1.98441 31.55 2.42954 33.7879 3.29444 35.876C4.15935 37.964 5.42701 39.8612 7.02513 41.4593C8.62324 43.0574 10.5204 44.3251 12.6084 45.19C14.6965 46.0549 16.9344 46.5 19.1945 46.5V29.2899H1.98441Z" fill="#121212"/>
<path d="M36.4043 29.2899C36.4043 31.55 35.9595 33.7879 35.0947 35.876C34.2298 37.964 32.9622 39.8612 31.3638 41.4593C29.7657 43.0574 27.8685 44.3251 25.7804 45.19C23.6925 46.0549 21.4545 46.5 19.1945 46.5V29.2899H36.4043Z" fill="#121212"/>
<path d="M47.0156 14.422C47.0156 21.5586 41.23 27.344 34.0935 27.344H21.1716V14.422C21.1716 7.2854 26.957 1.5 34.0935 1.5C41.23 1.5 47.0156 7.2854 47.0156 14.422Z" fill="#121212"/>
</svg>